<svg width="90" height="26" viewBox="0 0 90 26" fill="none" xmlns="http://www.w3.org/2000/svg">
<g clip-path="url(#clip0_196_106)">
<mask id="mask0_196_106" style="mask-type:luminance" maskUnits="userSpaceOnUse" x="0" y="1" width="24" height="24">
<path d="M24 1H0V25H24V1Z" fill="white"/>
</mask>
<g mask="url(#mask0_196_106)">
<path fill-rule="evenodd" clip-rule="evenodd" d="M12.4667 1C13.0926 1 13.6 1.50741 13.6 2.13333V4.12501C13.6 5.13469 14.8207 5.64035 15.5347 4.92639L16.943 3.51806C17.3857 3.07547 18.1032 3.07547 18.5459 3.51806L20.1486 5.12085C20.5912 5.56343 20.5912 6.28103 20.1486 6.72362L18.7402 8.13194C18.0263 8.84591 18.5319 10.0667 19.5416 10.0667H21.5333C22.1593 10.0667 22.6667 10.5741 22.6667 11.2V13.4667C22.6667 14.0926 22.1593 14.6 21.5333 14.6H19.5416C18.5319 14.6 18.0263 15.8207 18.7402 16.5347L20.1486 17.943C20.5912 18.3857 20.5912 19.1032 20.1486 19.5459L18.5459 21.1486C18.1032 21.5912 17.3857 21.5912 16.943 21.1486L15.5347 19.7402C14.8207 19.0263 13.6 19.5319 13.6 20.5416V22.5333C13.6 23.1593 13.0926 23.6667 12.4667 23.6667H10.2C9.57407 23.6667 9.06667 23.1593 9.06667 22.5333V20.5416C9.06667 19.5319 7.84591 19.0263 7.13194 19.7402L5.72362 21.1486C5.28103 21.5912 4.56343 21.5912 4.12085 21.1486L2.51807 19.5459C2.07547 19.1032 2.07547 18.3857 2.51807 17.943L3.9264 16.5347C4.64035 15.8207 4.13471 14.6 3.12501 14.6H1.13333C0.507411 14.6 0 14.0926 0 13.4667V11.2C0 10.5741 0.50741 10.0667 1.13333 10.0667H3.12501C4.13469 10.0667 4.64035 8.84591 3.9264 8.13194L2.51807 6.72362C2.07547 6.28102 2.07547 5.56343 2.51807 5.12085L4.12085 3.51806C4.56343 3.07547 5.28103 3.07547 5.72362 3.51806L7.13194 4.92639C7.84591 5.64035 9.06667 5.13469 9.06667 4.12501V2.13333C9.06667 1.50741 9.57407 1 10.2 1H12.4667ZM11.3333 18C14.4629 18 17 15.4629 17 12.3333C17 9.20372 14.4629 6.66667 11.3333 6.66667C8.20372 6.66667 5.66667 9.20372 5.66667 12.3333C5.66667 15.4629 8.20372 18 11.3333 18Z" fill="url(#paint0_linear_196_106)"/>
</g>
</g>
<path d="M32.624 19.128C31.8453 19.128 31.152 18.9947 30.544 18.728C29.936 18.4613 29.456 18.0987 29.104 17.64C28.752 17.1707 28.5547 16.648 28.512 16.072H31.216C31.248 16.3813 31.392 16.632 31.648 16.824C31.904 17.016 32.2187 17.112 32.592 17.112C32.9333 17.112 33.1947 17.048 33.376 16.92C33.568 16.7813 33.664 16.6053 33.664 16.392C33.664 16.136 33.5307 15.9493 33.264 15.832C32.9973 15.704 32.5653 15.5653 31.968 15.416C31.328 15.2667 30.7947 15.112 30.368 14.952C29.9413 14.7813 29.5733 14.52 29.264 14.168C28.9547 13.8053 28.8 13.32 28.8 12.712C28.8 12.2 28.9387 11.736 29.216 11.32C29.504 10.8933 29.92 10.5573 30.464 10.312C31.0187 10.0667 31.6747 9.944 32.432 9.944C33.552 9.944 34.432 10.2213 35.072 10.776C35.7227 11.3307 36.096 12.0667 36.192 12.984H33.664C33.6213 12.6747 33.4827 12.4293 33.248 12.248C33.024 12.0667 32.7253 11.976 32.352 11.976C32.032 11.976 31.7867 12.04 31.616 12.168C31.4453 12.2853 31.36 12.4507 31.36 12.664C31.36 12.92 31.4933 13.112 31.76 13.24C32.0373 13.368 32.464 13.496 33.04 13.624C33.7013 13.7947 34.24 13.9653 34.656 14.136C35.072 14.296 35.4347 14.5627 35.744 14.936C36.064 15.2987 36.2293 15.7893 36.24 16.408C36.24 16.9307 36.0907 17.4 35.792 17.816C35.504 18.2213 35.0827 18.5413 34.528 18.776C33.984 19.0107 33.3493 19.128 32.624 19.128ZM41.9779 19.128C41.1032 19.128 40.3139 18.9413 39.6099 18.568C38.9165 18.1947 38.3672 17.6613 37.9619 16.968C37.5672 16.2747 37.3699 15.464 37.3699 14.536C37.3699 13.6187 37.5725 12.8133 37.9779 12.12C38.3832 11.416 38.9379 10.8773 39.6419 10.504C40.3459 10.1307 41.1352 9.944 42.0099 9.944C42.8845 9.944 43.6739 10.1307 44.3779 10.504C45.0819 10.8773 45.6365 11.416 46.0419 12.12C46.4472 12.8133 46.6499 13.6187 46.6499 14.536C46.6499 15.4533 46.4419 16.264 46.0259 16.968C45.6205 17.6613 45.0605 18.1947 44.3459 18.568C43.6419 18.9413 42.8525 19.128 41.9779 19.128ZM41.9779 16.76C42.5005 16.76 42.9432 16.568 43.3059 16.184C43.6792 15.8 43.8659 15.2507 43.8659 14.536C43.8659 13.8213 43.6845 13.272 43.3219 12.888C42.9699 12.504 42.5325 12.312 42.0099 12.312C41.4765 12.312 41.0339 12.504 40.6819 12.888C40.3299 13.2613 40.1539 13.8107 40.1539 14.536C40.1539 15.2507 40.3245 15.8 40.6659 16.184C41.0179 16.568 41.4552 16.76 41.9779 16.76ZM50.8374 7.16V19H48.1014V7.16H50.8374ZM52.2761 14.52C52.2761 13.6027 52.4468 12.7973 52.7881 12.104C53.1401 11.4107 53.6148 10.8773 54.2121 10.504C54.8095 10.1307 55.4761 9.944 56.2121 9.944C56.8415 9.944 57.3908 10.072 57.8601 10.328C58.3401 10.584 58.7081 10.92 58.9641 11.336V10.072H61.7001V19H58.9641V17.736C58.6975 18.152 58.3241 18.488 57.8441 18.744C57.3748 19 56.8255 19.128 56.1961 19.128C55.4708 19.128 54.8095 18.9413 54.2121 18.568C53.6148 18.184 53.1401 17.6453 52.7881 16.952C52.4468 16.248 52.2761 15.4373 52.2761 14.52ZM58.9641 14.536C58.9641 13.8533 58.7721 13.3147 58.3881 12.92C58.0148 12.5253 57.5561 12.328 57.0121 12.328C56.4681 12.328 56.0041 12.5253 55.6201 12.92C55.2468 13.304 55.0601 13.8373 55.0601 14.52C55.0601 15.2027 55.2468 15.7467 55.6201 16.152C56.0041 16.5467 56.4681 16.744 57.0121 16.744C57.5561 16.744 58.0148 16.5467 58.3881 16.152C58.7721 15.7573 58.9641 15.2187 58.9641 14.536ZM66.4155 11.56C66.7355 11.0693 67.1355 10.6853 67.6155 10.408C68.0955 10.12 68.6288 9.976 69.2155 9.976V12.872H68.4635C67.7808 12.872 67.2688 13.0213 66.9275 13.32C66.5862 13.608 66.4155 14.12 66.4155 14.856V19H63.6795V10.072H66.4155V11.56ZM71.8993 9.144C71.4193 9.144 71.0246 9.00533 70.7153 8.728C70.4166 8.44 70.2673 8.088 70.2673 7.672C70.2673 7.24533 70.4166 6.89333 70.7153 6.616C71.0246 6.328 71.4193 6.184 71.8993 6.184C72.3686 6.184 72.7526 6.328 73.0513 6.616C73.3606 6.89333 73.5153 7.24533 73.5153 7.672C73.5153 8.088 73.3606 8.44 73.0513 8.728C72.7526 9.00533 72.3686 9.144 71.8993 9.144ZM73.2593 10.072V19H70.5233V10.072H73.2593ZM78.874 19.128C78.0953 19.128 77.402 18.9947 76.794 18.728C76.186 18.4613 75.706 18.0987 75.354 17.64C75.002 17.1707 74.8047 16.648 74.762 16.072H77.466C77.498 16.3813 77.642 16.632 77.898 16.824C78.154 17.016 78.4687 17.112 78.842 17.112C79.1833 17.112 79.4447 17.048 79.626 16.92C79.818 16.7813 79.914 16.6053 79.914 16.392C79.914 16.136 79.7807 15.9493 79.514 15.832C79.2473 15.704 78.8153 15.5653 78.218 15.416C77.578 15.2667 77.0447 15.112 76.618 14.952C76.1913 14.7813 75.8233 14.52 75.514 14.168C75.2047 13.8053 75.05 13.32 75.05 12.712C75.05 12.2 75.1887 11.736 75.466 11.32C75.754 10.8933 76.17 10.5573 76.714 10.312C77.2687 10.0667 77.9247 9.944 78.682 9.944C79.802 9.944 80.682 10.2213 81.322 10.776C81.9727 11.3307 82.346 12.0667 82.442 12.984H79.914C79.8713 12.6747 79.7327 12.4293 79.498 12.248C79.274 12.0667 78.9753 11.976 78.602 11.976C78.282 11.976 78.0367 12.04 77.866 12.168C77.6953 12.2853 77.61 12.4507 77.61 12.664C77.61 12.92 77.7433 13.112 78.01 13.24C78.2873 13.368 78.714 13.496 79.29 13.624C79.9513 13.7947 80.49 13.9653 80.906 14.136C81.322 14.296 81.6847 14.5627 81.994 14.936C82.314 15.2987 82.4793 15.7893 82.49 16.408C82.49 16.9307 82.3407 17.4 82.042 17.816C81.754 18.2213 81.3327 18.5413 80.778 18.776C80.234 19.0107 79.5993 19.128 78.874 19.128Z" fill="#FFE2A8"/>
<defs>
<linearGradient id="paint0_linear_196_106" x1="11.3333" y1="1" x2="11.3333" y2="23.6667" gradientUnits="userSpaceOnUse">
<stop stop-color="#FF8A05"/>
<stop offset="1" stop-color="#F66809"/>
</linearGradient>
<clipPath id="clip0_196_106">
<rect width="24" height="24" fill="white" transform="translate(0 1)"/>
</clipPath>
</defs>
</svg>
