<svg width="613" height="169" viewBox="0 0 613 169" fill="none" xmlns="http://www.w3.org/2000/svg">
<g clip-path="url(#clip0_105_19)">
<mask id="mask0_105_19" style="mask-type:luminance" maskUnits="userSpaceOnUse" x="0" y="2" width="165" height="165">
<path d="M165 2H0V167H165V2Z" fill="white"/>
</mask>
<g mask="url(#mask0_105_19)">
<path fill-rule="evenodd" clip-rule="evenodd" d="M85.7083 2C90.0117 2 93.5 5.48845 93.5 9.79167V23.4844C93.5 30.426 101.892 33.9024 106.801 28.9939L116.483 19.3117C119.526 16.2689 124.459 16.2689 127.503 19.3117L138.522 30.3308C141.564 33.3736 141.564 38.3071 138.522 41.3499L128.839 51.0321C123.931 55.9406 127.407 64.3333 134.349 64.3333H148.042C152.345 64.3333 155.833 67.8217 155.833 72.125V87.7083C155.833 92.0117 152.345 95.5 148.042 95.5H134.349C127.407 95.5 123.931 103.892 128.839 108.801L138.522 118.483C141.564 121.526 141.564 126.459 138.522 129.503L127.503 140.522C124.459 143.564 119.526 143.564 116.483 140.522L106.801 130.839C101.892 125.931 93.5 129.407 93.5 136.349V150.042C93.5 154.345 90.0117 157.833 85.7083 157.833H70.125C65.8217 157.833 62.3333 154.345 62.3333 150.042V136.349C62.3333 129.407 53.9406 125.931 49.0321 130.839L39.3499 140.522C36.3071 143.564 31.3736 143.564 28.3308 140.522L17.3118 129.503C14.2689 126.459 14.2689 121.526 17.3118 118.483L26.994 108.801C31.9024 103.892 28.4261 95.5 21.4844 95.5H7.79167C3.48845 95.5 0 92.0117 0 87.7083V72.125C0 67.8217 3.48845 64.3333 7.79167 64.3333H21.4844C28.426 64.3333 31.9024 55.9406 26.994 51.0321L17.3118 41.3499C14.2689 38.307 14.2689 33.3736 17.3118 30.3308L28.3308 19.3117C31.3736 16.2689 36.3071 16.2689 39.3499 19.3117L49.0321 28.9939C53.9406 33.9024 62.3333 30.426 62.3333 23.4844V9.79167C62.3333 5.48845 65.8217 2 70.125 2H85.7083ZM77.9167 118.875C99.4326 118.875 116.875 101.433 116.875 79.9167C116.875 58.4006 99.4326 40.9583 77.9167 40.9583C56.4006 40.9583 38.9583 58.4006 38.9583 79.9167C38.9583 101.433 56.4006 118.875 77.9167 118.875Z" fill="url(#paint0_linear_105_19)"/>
</g>
</g>
<path d="M213.992 130.524C207.763 130.524 202.216 129.457 197.352 127.324C192.488 125.191 188.648 122.289 185.832 118.62C183.016 114.865 181.437 110.684 181.096 106.076H202.728C202.984 108.551 204.136 110.556 206.184 112.092C208.232 113.628 210.749 114.396 213.736 114.396C216.467 114.396 218.557 113.884 220.008 112.86C221.544 111.751 222.312 110.343 222.312 108.636C222.312 106.588 221.245 105.095 219.112 104.156C216.979 103.132 213.523 102.023 208.744 100.828C203.624 99.6333 199.357 98.396 195.944 97.116C192.531 95.7507 189.587 93.66 187.112 90.844C184.637 87.9427 183.4 84.06 183.4 79.196C183.4 75.1 184.509 71.388 186.728 68.06C189.032 64.6467 192.36 61.9587 196.712 59.996C201.149 58.0333 206.397 57.052 212.456 57.052C221.416 57.052 228.456 59.2707 233.576 63.708C238.781 68.1453 241.768 74.0333 242.536 81.372H222.312C221.971 78.8973 220.861 76.9347 218.984 75.484C217.192 74.0333 214.803 73.308 211.816 73.308C209.256 73.308 207.293 73.82 205.928 74.844C204.563 75.7827 203.88 77.1053 203.88 78.812C203.88 80.86 204.947 82.396 207.08 83.42C209.299 84.444 212.712 85.468 217.32 86.492C222.611 87.8573 226.92 89.2227 230.248 90.588C233.576 91.868 236.477 94.0013 238.952 96.988C241.512 99.8893 242.835 103.815 242.92 108.764C242.92 112.945 241.725 116.7 239.336 120.028C237.032 123.271 233.661 125.831 229.224 127.708C224.872 129.585 219.795 130.524 213.992 130.524ZM288.823 130.524C281.826 130.524 275.511 129.031 269.879 126.044C264.332 123.057 259.938 118.791 256.695 113.244C253.538 107.697 251.959 101.212 251.959 93.788C251.959 86.4493 253.58 80.0067 256.823 74.46C260.066 68.828 264.503 64.5187 270.135 61.532C275.767 58.5453 282.082 57.052 289.079 57.052C296.076 57.052 302.391 58.5453 308.023 61.532C313.655 64.5187 318.092 68.828 321.335 74.46C324.578 80.0067 326.199 86.4493 326.199 93.788C326.199 101.127 324.535 107.612 321.207 113.244C317.964 118.791 313.484 123.057 307.767 126.044C302.135 129.031 295.82 130.524 288.823 130.524ZM288.823 111.58C293.004 111.58 296.546 110.044 299.447 106.972C302.434 103.9 303.927 99.5053 303.927 93.788C303.927 88.0707 302.476 83.676 299.575 80.604C296.759 77.532 293.26 75.996 289.079 75.996C284.812 75.996 281.271 77.532 278.455 80.604C275.639 83.5907 274.231 87.9853 274.231 93.788C274.231 99.5053 275.596 103.9 278.327 106.972C281.143 110.044 284.642 111.58 288.823 111.58ZM359.699 34.78V129.5H337.811V34.78H359.699ZM371.209 93.66C371.209 86.3213 372.574 79.8787 375.305 74.332C378.121 68.7853 381.918 64.5187 386.697 61.532C391.476 58.5453 396.809 57.052 402.697 57.052C407.732 57.052 412.126 58.076 415.881 60.124C419.721 62.172 422.665 64.86 424.713 68.188V58.076H446.601V129.5H424.713V119.388C422.58 122.716 419.593 125.404 415.753 127.452C411.998 129.5 407.604 130.524 402.569 130.524C396.766 130.524 391.476 129.031 386.697 126.044C381.918 122.972 378.121 118.663 375.305 113.116C372.574 107.484 371.209 100.999 371.209 93.66ZM424.713 93.788C424.713 88.3267 423.177 84.0173 420.105 80.86C417.118 77.7027 413.449 76.124 409.097 76.124C404.745 76.124 401.033 77.7027 397.961 80.86C394.974 83.932 393.481 88.1987 393.481 93.66C393.481 99.1213 394.974 103.473 397.961 106.716C401.033 109.873 404.745 111.452 409.097 111.452C413.449 111.452 417.118 109.873 420.105 106.716C423.177 103.559 424.713 99.2493 424.713 93.788ZM484.324 69.98C486.884 66.0547 490.084 62.9827 493.924 60.764C497.764 58.46 502.031 57.308 506.724 57.308V80.476H500.708C495.247 80.476 491.151 81.6707 488.42 84.06C485.689 86.364 484.324 90.46 484.324 96.348V129.5H462.436V58.076H484.324V69.98ZM528.194 50.652C524.354 50.652 521.197 49.5427 518.722 47.324C516.333 45.02 515.138 42.204 515.138 38.876C515.138 35.4627 516.333 32.6467 518.722 30.428C521.197 28.124 524.354 26.972 528.194 26.972C531.949 26.972 535.021 28.124 537.41 30.428C539.885 32.6467 541.122 35.4627 541.122 38.876C541.122 42.204 539.885 45.02 537.41 47.324C535.021 49.5427 531.949 50.652 528.194 50.652ZM539.074 58.076V129.5H517.186V58.076H539.074ZM583.992 130.524C577.763 130.524 572.216 129.457 567.352 127.324C562.488 125.191 558.648 122.289 555.832 118.62C553.016 114.865 551.437 110.684 551.096 106.076H572.728C572.984 108.551 574.136 110.556 576.184 112.092C578.232 113.628 580.749 114.396 583.736 114.396C586.467 114.396 588.557 113.884 590.008 112.86C591.544 111.751 592.312 110.343 592.312 108.636C592.312 106.588 591.245 105.095 589.112 104.156C586.979 103.132 583.523 102.023 578.744 100.828C573.624 99.6333 569.357 98.396 565.944 97.116C562.531 95.7507 559.587 93.66 557.112 90.844C554.637 87.9427 553.4 84.06 553.4 79.196C553.4 75.1 554.509 71.388 556.728 68.06C559.032 64.6467 562.36 61.9587 566.712 59.996C571.149 58.0333 576.397 57.052 582.456 57.052C591.416 57.052 598.456 59.2707 603.576 63.708C608.781 68.1453 611.768 74.0333 612.536 81.372H592.312C591.971 78.8973 590.861 76.9347 588.984 75.484C587.192 74.0333 584.803 73.308 581.816 73.308C579.256 73.308 577.293 73.82 575.928 74.844C574.563 75.7827 573.88 77.1053 573.88 78.812C573.88 80.86 574.947 82.396 577.08 83.42C579.299 84.444 582.712 85.468 587.32 86.492C592.611 87.8573 596.92 89.2227 600.248 90.588C603.576 91.868 606.477 94.0013 608.952 96.988C611.512 99.8893 612.835 103.815 612.92 108.764C612.92 112.945 611.725 116.7 609.336 120.028C607.032 123.271 603.661 125.831 599.224 127.708C594.872 129.585 589.795 130.524 583.992 130.524Z" fill="#FFE2A8"/>
<defs>
<linearGradient id="paint0_linear_105_19" x1="77.9167" y1="2" x2="77.9167" y2="157.833" gradientUnits="userSpaceOnUse">
<stop stop-color="#FF8A05"/>
<stop offset="1" stop-color="#F66809"/>
</linearGradient>
<clipPath id="clip0_105_19">
<rect width="165" height="165" fill="white" transform="translate(0 2)"/>
</clipPath>
</defs>
</svg>
